<?xml version="1.0" encoding="UTF-8" standalone="no"?>
<!-- Created with Inkscape (http://www.inkscape.org/) -->

<svg
   xmlns:dc="http://purl.org/dc/elements/1.1/"
   xmlns:cc="http://creativecommons.org/ns#"
   xmlns:rdf="http://www.w3.org/1999/02/22-rdf-syntax-ns#"
   xmlns:svg="http://www.w3.org/2000/svg"
   xmlns="http://www.w3.org/2000/svg"
   xmlns:sodipodi="http://sodipodi.sourceforge.net/DTD/sodipodi-0.dtd"
   xmlns:inkscape="http://www.inkscape.org/namespaces/inkscape"
   id="svg2"
   version="1.1"
   inkscape:version="0.48.4 r9939"
   width="256"
   height="256"
   sodipodi:docname="volleyball-icon.png">
  <metadata
     id="metadata8">
    <rdf:RDF>
      <cc:Work
         rdf:about="">
        <dc:format>image/svg+xml</dc:format>
        <dc:type
           rdf:resource="http://purl.org/dc/dcmitype/StillImage" />
        <dc:title></dc:title>
      </cc:Work>
    </rdf:RDF>
  </metadata>
  <defs
     id="defs6" />
  <sodipodi:namedview
     pagecolor="#ffffff"
     bordercolor="#666666"
     borderopacity="1"
     objecttolerance="10"
     gridtolerance="10"
     guidetolerance="10"
     inkscape:pageopacity="0"
     inkscape:pageshadow="2"
     inkscape:window-width="1920"
     inkscape:window-height="1017"
     id="namedview4"
     showgrid="false"
     inkscape:zoom="0.921875"
     inkscape:cx="128"
     inkscape:cy="128"
     inkscape:window-x="-8"
     inkscape:window-y="-8"
     inkscape:window-maximized="1"
     inkscape:current-layer="svg2" />
  <g
     id="g3070"
     inkscape:export-xdpi="5.9400001"
     inkscape:export-ydpi="5.9400001"
     transform="translate(339.52542,69.423729)">
    <path
       id="path3068"
       d="m -230.99107,174.00701 c -46.86165,-8.92157 -82.66956,-42.22962 -95.2499,-88.60023 -2.3569,-8.68743 -2.57735,-11.16791 -2.57735,-29 0,-17.83209 0.22045,-20.31257 2.57735,-29 11.74801,-43.302688 43.49761,-75.052281 86.8003,-86.800299 8.68743,-2.356899 11.16791,-2.57735 29,-2.57735 17.83209,0 20.31257,0.220451 29,2.57735 43.30269,11.748018 75.05228,43.497611 86.800296,86.800299 2.3569,8.68743 2.57735,11.16791 2.57735,29 0,17.83209 -0.22045,20.31257 -2.57735,29 -11.752326,43.31858 -43.881016,75.41957 -86.800296,86.72546 -7.84369,2.0662 -12.37675,2.5648 -26,2.85977 -11.05831,0.23944 -18.82522,-0.0854 -23.5504,-0.985 z"
       style="fill:#000000"
       inkscape:connector-curvature="0" />
    <path
       id="path3066"
       d="m -188.16395,170.86658 c 24.44037,-5.08024 44.72449,-16.31842 61.77758,-34.22715 18.81621,-19.7603 29.157216,-42.30439 32.101146,-69.98265 2.50644,-23.565 -3.90427,-50.180975 -17.374426,-72.1351451 -7.20806,-11.7479749 -25.1479,-29.6878109 -36.89587,-36.8958749 -38.63882,-23.707152 -85.13148,-23.707152 -123.7703,0 -11.74797,7.208064 -29.68781,25.1479 -36.89587,36.8958749 -23.70716,38.6388151 -23.70716,85.1314751 0,123.7702951 7.20806,11.74797 25.1479,29.68781 36.89587,36.89587 14.39101,8.82972 31.9998,15.08727 48.38515,17.1944 8.97357,1.15399 26.507,0.41121 35.77672,-1.51562 z"
       style="fill:#000000"
       inkscape:connector-curvature="0" />
    <path
       id="path3064"
       d="m -216.44067,164.68609 c -8.57872,-0.52314 -13,-1.40769 -13,-2.60087 0,-0.65946 3.0375,-3.52191 6.75,-6.36101 9.59531,-7.33792 22.1498,-20.3119 30.84798,-31.87872 12.56931,-16.71464 24.48317,-43.21173 27.59896,-61.38162 l 1.25592,-7.32392 9.02357,0.57819 c 9.38399,0.60128 25.22243,3.26646 27.39643,4.61006 0.97978,0.60554 0.71234,3.36413 -1.22891,12.67627 -4.34138,20.82547 -12.23766,39.97136 -23.50494,56.99172 -6.15779,9.30198 -19.63053,25.24352 -24.17616,28.60631 -4.67153,3.45593 -27.77815,6.88761 -40.96285,6.08359 z"
       style="fill:#000000"
       inkscape:connector-curvature="0" />
    <path
       id="path3062"
       d="m -185.94067,159.4884 c 7.73462,-1.97024 8.22956,-2.27907 14.91998,-9.30973 13.41655,-14.09883 24.36435,-30.76038 31.6172,-48.11851 3.69041,-8.83217 8.83576,-26.55927 10.41265,-35.87432 0.58619,-3.46279 0.43634,-3.76461 -2.15997,-4.35028 -1.53442,-0.34614 -4.36486,-1.00382 -6.28986,-1.46151 -1.925,-0.45769 -7.73715,-1.33084 -12.91588,-1.94033 -10.65897,-1.25446 -10.51622,-1.32701 -11.587,5.8885 -2.34614,15.80944 -15.76781,45.42507 -27.8709,61.49858 -8.29997,11.02279 -20.07617,23.38236 -28.99016,30.4263 -5.54698,4.38328 -5.73617,4.67346 -3.5,5.36842 4.47634,1.39117 27.94028,0.0186 36.36394,-2.12712 z"
       style="fill:#ffffff"
       inkscape:connector-curvature="0" />
    <path
       id="path3060"
       d="m -253.73963,155.97751 c -13.35496,-5.8305 -15.10288,-7.76696 -10.01803,-11.09869 4.95336,-3.24557 20.51422,-18.8966 26.81664,-26.97204 11.30313,-14.48299 21.3815,-33.17486 27.05175,-50.17161 l 2.72611,-8.17161 8.98609,-1.65141 c 4.94234,-0.90828 12.9799,-1.91017 17.86124,-2.22642 10.21279,-0.66165 9.87031,-1.08734 7.41855,9.22105 -6.43145,27.04085 -21.97786,54.16083 -42.20236,73.62 -11.59445,11.15571 -25.02299,20.89016 -28.78682,20.86779 -1.12982,-0.007 -5.56374,-1.54439 -9.85317,-3.41706 z"
       style="fill:#000000"
       inkscape:connector-curvature="0" />
    <path
       id="path3058"
       d="m -232.65863,149.73588 c 25.23109,-18.79644 44.13816,-44.74188 53.69077,-73.67778 1.84319,-5.58323 3.66184,-12.10195 4.04143,-14.48605 l 0.69018,-4.33472 -5.85221,0.66473 c -9.67001,1.09839 -23.80725,3.59011 -24.514,4.32065 -0.36399,0.37624 -2.33296,5.18407 -4.37549,10.68407 -10.56973,28.46154 -27.16874,52.51127 -48.72977,70.6029 l -5.76705,4.83906 4.26705,2.18881 c 2.34688,1.20385 6.73866,3.19934 9.75953,4.43443 6.37438,2.60618 6.18209,2.66615 16.78956,-5.2361 z"
       style="fill:#ffffff"
       inkscape:connector-curvature="0" />
    <path
       id="path3056"
       d="m -150.44067,144.31135 c 0,-0.60248 2.43001,-4.76498 5.40002,-9.25 12.20253,-18.42702 20.2997,-37.89326 25.00258,-60.10815 1.27537,-6.02446 2.78956,-11.11047 3.36486,-11.30224 0.57531,-0.19177 4.02703,1.00299 7.67051,2.65502 5.80947,2.63414 6.56399,3.2865 6.13263,5.30225 -0.27053,1.2642 -1.01031,4.99855 -1.64394,8.29855 -4.29885,22.38846 -19.71017,47.06033 -38.40618,61.4842 -5.25049,4.05072 -7.52048,4.93221 -7.52048,2.92037 z"
       style="fill:#000000"
       inkscape:connector-curvature="0" />
    <path
       id="path3054"
       d="m -125.33985,119.06661 c 7.64551,-10.08733 14.14633,-23.57889 17.35567,-36.01931 1.39893,-5.42271 2.54351,-10.42521 2.54351,-11.11667 0,-0.69146 -2.2479,-2.19139 -4.99534,-3.33317 l -4.99535,-2.07597 -0.44054,2.19264 c -1.92616,9.58669 -5.3465,22.59443 -7.80759,29.69265 -3.00967,8.68046 -11.49945,26.45693 -16.16553,33.84847 -1.42761,2.26148 -2.59565,4.44286 -2.59565,4.8475 0,1.51494 11.37724,-10.48457 17.10082,-18.03614 z"
       style="fill:#ffffff"
       inkscape:connector-curvature="0" />
    <path
       id="path3052"
       d="M -284.20136,135.92201 C -301.0871,120.2884 -312.68329,99.5363 -316.87181,77.4562 c -3.14222,-16.56439 -1.21757,-18.63017 4.93114,-5.29276 8.43496,18.29663 23.52759,38.20785 40.74364,53.7518 4.259,3.84535 7.7465,7.31858 7.75,7.71829 0.0116,1.32631 -10.14177,8.77325 -11.96171,8.77325 -0.98366,0 -4.94034,-2.91815 -8.79262,-6.48477 z"
       style="fill:#000000"
       inkscape:connector-curvature="0" />
    <path
       id="path3050"
       d="m -270.50208,136.50171 3.4386,-2.85126 -6.30329,-5.83574 c -17.18939,-15.91433 -27.5685,-29.06533 -37.74363,-47.82356 -2.66276,-4.90889 -4.14071,-6.90599 -3.76267,-5.08437 3.50808,16.90432 10.08867,31.93945 19.37071,44.25765 6.28716,8.34369 18.28301,20.26124 20.34827,20.21545 0.66738,-0.0148 2.76078,-1.30997 4.65201,-2.87817 z"
       style="fill:#ffffff"
       inkscape:connector-curvature="0" />
    <path
       id="path3048"
       d="m -268.57289,117.49688 c -20.52839,-19.26657 -35.05081,-41.52889 -43.43468,-66.58373 -5.09951,-15.23966 -5.21098,-17.38545 -1.48257,-28.541192 4.91506,-14.7063531 16.77354,-34.965178 20.46682,-34.965178 0.93314,0 1.7145,2.558306 2.51974,8.2499999 1.74549,12.337833 6.52338,29.3995921 11.47146,40.9644801 8.8457,20.67455 17.77748,33.93629 33.82706,50.22574 6.47041,6.56712 11.76439,12.13498 11.76439,12.37301 0,0.96426 -9.75055,14.00746 -15.23525,20.38003 -4.0397,4.69365 -6.56389,6.80674 -8.13096,6.80674 -1.48308,0 -5.57067,-3.09536 -11.76601,-8.9099 z"
       style="fill:#000000"
       inkscape:connector-curvature="0" />
    <path
       id="path3046"
       d="m -242.4223,107.26952 5.68604,-7.63726 -11.11134,-11.36274 C -271.65891,63.91945 -286.23594,35.23838 -292.31717,0.77329988 l -1.71922,-9.74361098 -4.58382,6.938546 c -6.03678,9.137908 -9.26028,15.6815381 -12.3898,25.1510521 -3.20519,9.698453 -3.20151,11.644883 0.0429,22.707193 7.23963,24.68454 23.26213,49.81917 44.4636,69.75039 l 9.56282,8.98989 4.41617,-4.82999 c 2.42889,-2.6565 6.97489,-8.26676 10.10221,-12.46725 z"
       style="fill:#ffffff"
       inkscape:connector-curvature="0" />
    <path
       id="path3044"
       d="m -237.14862,83.97083 c -26.03134,-24.10102 -44.10016,-62.609084 -46.0138,-98.06405 l -0.53974,-10 5.88074,-4.598327 c 8.2411,-6.443962 14.34629,-10.128874 15.83505,-9.557581 0.70926,0.272167 1.56437,3.104307 1.94015,6.425808 0.91709,8.105958 4.96251,22.8498769 9.25067,33.7149049 6.51627,16.5104391 16.67993,33.3221251 28.97755,47.9317151 l 6.66373,7.91652 -2.24186,7.08348 c -2.75994,8.72043 -10.57691,25.58348 -11.85938,25.58348 -0.51793,0 -4.06983,-2.89618 -7.89311,-6.43595 z"
       style="fill:#000000"
       inkscape:connector-curvature="0" />
    <path
       id="path3042"
       d="m -226.59389,80.65678 c 1.58156,-3.1625 4.14859,-9.37477 5.70451,-13.80504 l 2.82895,-8.05504 -6.55267,-7.94496 c -12.16016,-14.7439 -21.75662,-30.64547 -28.33088,-46.9449601 -3.9631,-9.825692 -9.49669,-29.9333399 -9.49669,-34.5085639 0,-1.580371 -0.48692,-3.174333 -1.08204,-3.542137 -1.06319,-0.657089 -8.16312,3.845292 -14.77645,9.370409 l -3.35848,2.80585 1.13382,10.530851 c 3.15055,29.262082 13.92777,55.872421 31.83682,78.609121 5.73502,7.28099 17.33006,19.23447 18.6577,19.23447 0.30791,0 1.85385,-2.5875 3.43541,-5.75 z"
       style="fill:#ffffff"
       inkscape:connector-curvature="0" />
    <path
       id="path3040"
       d="m -107.44067,58.38923 c -3.21519,-2.11544 -20.8416,-7.16445 -31.88938,-9.13458 -16.60352,-2.96087 -39.07452,-2.90774 -56.87483,0.13448 l -13.2642,2.26695 -4.2358,-4.76867 c -6.75587,-7.60581 -15.68419,-19.774576 -16.36448,-22.303846 -0.34368,-1.277769 -0.20369,-2.744409 0.31111,-3.2592 1.41516,-1.41516 19.09099,-5.679709 29.02848,-7.003537 5.49135,-0.731534 15.16765,-0.960211 25.7891,-0.609467 23.67778,0.781894 37.2689,3.869771 59.32859,13.479343 7.81084,3.402527 10.55463,5.093807 11.25584,6.938137 1.08818,2.86215 2.99877,23.3343 2.28542,24.48853 -0.67156,1.08661 -3.55799,0.96398 -5.36985,-0.22814 z"
       style="fill:#000000"
       inkscape:connector-curvature="0" />
    <path
       id="path3038"
       d="m -104.81915,48.42051 c -1.19869,-14.37331 -0.88096,-13.80234 -10.02348,-18.01283 -25.56629,-11.7743 -55.35985,-16.925128 -81.09804,-14.02055 -11.32932,1.278525 -29.16984,5.289486 -30.80633,6.925976 -1.04562,1.04562 4.34393,8.983074 12.99964,19.145234 l 5.58036,6.55157 6.11316,-1.24799 c 16.77358,-3.42426 39.55034,-4.3531 55.70417,-2.2716 10.89693,1.40412 26.87112,5.26564 34.43512,8.32418 3.28564,1.32856 6.37608,2.45532 6.86766,2.50392 0.50776,0.0502 0.60612,-3.36085 0.22774,-7.89791 z"
       style="fill:#ffffff"
       inkscape:connector-curvature="0" />
    <path
       id="path3036"
       d="m -114.44067,18.967085 c -4.96627,-2.700898 -22.84031,-8.406722 -32.80018,-10.4706101 -27.25832,-5.648478 -58.28569,-4.145336 -81.86118,3.9658201 -3.10846,1.069467 -6.02371,1.944485 -6.47834,1.944485 -2.21015,0 -13.17093,-27.528631 -12.66647,-31.812548 0.27444,-2.330577 1.30995,-2.937799 9.99399,-5.860467 16.39859,-5.519054 27.45029,-7.412663 46.81218,-8.020846 18.92609,-0.594494 32.95522,0.818549 46.44789,4.67833 8.03276,2.297889 12.11236,5.755688 21.65653,18.3556979 5.45148,7.196927 14.89558,24.6045601 14.89558,27.4559511 0,1.580157 -2.86816,1.467432 -6,-0.235813 z"
       style="fill:#000000"
       inkscape:connector-curvature="0" />
    <path
       id="path3034"
       d="m -115.62853,9.1567799 c -4.82453,-9.27988502 -13.49052,-21.1741339 -19.97929,-27.4219709 -4.78816,-4.610378 -8.98741,-6.132786 -24.83285,-9.002968 -12.84024,-2.325832 -39.09387,-2.297237 -51.5,0.05609 -10.92446,2.072272 -21.25709,4.807735 -28.75085,7.611511 l -5.59346,2.092778 2.80719,8.2072789 c 4.88742,14.289212 8.13541,20.8846941 9.93896,20.1824661 5.50555,-2.1436251 25.22182,-6.4957021 34.09816,-7.5266651 14.00688,-1.626863 36.42166,-0.716967 50.46956,2.048739 10.76361,2.119107 29.59742,7.8805221 34.53044,10.5631411 1.375,0.747737 2.63528,1.377539 2.80062,1.399559 0.16535,0.02202 -1.62947,-3.672462 -3.98848,-8.2099621 z"
       style="fill:#ffffff"
       inkscape:connector-curvature="0" />
    <path
       id="path3032"
       d="m -251.77544,-31.245593 c -0.29511,-1.566195 -0.81203,-4.944744 -1.14871,-7.507888 l -0.61216,-4.660261 5.79782,-2.19524 c 15.842,-5.998292 39.73934,-7.864841 57.79782,-4.514415 12.0831,2.241802 25.86301,7.426725 26.33746,9.909911 0.31557,1.651583 -0.0764,1.798024 -3.22933,1.206529 -6.82094,-1.279615 -32.95862,-0.740984 -43.97712,0.906256 -5.97795,0.893688 -16.10295,3.205599 -22.5,5.137578 -6.39706,1.93198 -13.04811,3.749495 -14.78012,4.038924 -2.8354,0.473811 -3.20255,0.242563 -3.68566,-2.321394 z"
       style="fill:#000000"
       inkscape:connector-curvature="0" />
    <path
       id="path2987"
       d="m -219.44067,-39.216546 c 8.92377,-1.825151 17.36367,-2.745424 29.5,-3.216631 l 17,-0.660043 -8.01231,-2.220406 c -15.2534,-4.227091 -29.29097,-5.260437 -43.88544,-3.230533 -8.23094,1.144819 -23.27975,5.228438 -24.77393,6.722611 -0.51903,0.51903 -0.63793,3.182888 -0.26691,5.979794 l 0.66909,5.043802 8.63475,-2.931003 c 4.74911,-1.612052 14.25975,-4.081467 21.13475,-5.487591 z"
       style="fill:#ffffff"
       inkscape:connector-curvature="0" />
  </g>
</svg>
