<?xml version="1.0" encoding="UTF-8" standalone="no"?>
<!-- Created with Inkscape (http://www.inkscape.org/) -->

<svg
   xmlns:dc="http://purl.org/dc/elements/1.1/"
   xmlns:cc="http://creativecommons.org/ns#"
   xmlns:rdf="http://www.w3.org/1999/02/22-rdf-syntax-ns#"
   xmlns:svg="http://www.w3.org/2000/svg"
   xmlns="http://www.w3.org/2000/svg"
   xmlns:sodipodi="http://sodipodi.sourceforge.net/DTD/sodipodi-0.dtd"
   xmlns:inkscape="http://www.inkscape.org/namespaces/inkscape"
   id="svg2"
   version="1.1"
   inkscape:version="0.48.4 r9939"
   width="587"
   height="759"
   sodipodi:docname="logo rb.svg">
  <metadata
     id="metadata8">
    <rdf:RDF>
      <cc:Work
         rdf:about="">
        <dc:format>image/svg+xml</dc:format>
        <dc:type
           rdf:resource="http://purl.org/dc/dcmitype/StillImage" />
        <dc:title></dc:title>
      </cc:Work>
    </rdf:RDF>
  </metadata>
  <defs
     id="defs6" />
  <sodipodi:namedview
     pagecolor="#ffffff"
     bordercolor="#666666"
     borderopacity="1"
     objecttolerance="10"
     gridtolerance="10"
     guidetolerance="10"
     inkscape:pageopacity="0"
     inkscape:pageshadow="2"
     inkscape:window-width="1920"
     inkscape:window-height="1017"
     id="namedview4"
     showgrid="false"
     inkscape:zoom="0.62187088"
     inkscape:cx="247.98502"
     inkscape:cy="405.93288"
     inkscape:window-x="-8"
     inkscape:window-y="-8"
     inkscape:window-maximized="1"
     inkscape:current-layer="svg2" />
  <path
     style="fill:#159b02;fill-opacity:1"
     d="m 141.62026,756.75 c 4.33794,-7.34458 23.77006,-26.93881 38.1005,-38.41834 25.17992,-20.17061 58.2116,-34.70922 90.28537,-39.73833 24.64359,-3.86408 53.14518,-3.87078 73.99387,-0.0174 15.82258,2.92442 43.28708,12.85211 59.69822,21.57931 8.17655,4.34818 22.01733,13.60325 31.36766,20.97497 C 446.05321,729.79253 469,753.38868 469,756.02461 469,757.98377 467.65191,758 304.94098,758 c -130.9743,0 -163.91013,-0.25208 -163.32072,-1.25 z"
     id="path3078" />
  <path
     style="fill:#00923f;fill-opacity:1"
     d="m 10.323343,669.40024 c -0.694214,-1.8091 1.561149,-228.61807 2.280506,-229.33742 0.25537,-0.25537 4.386474,-0.34526 9.18023,-0.19976 18.266243,0.55444 76.918881,-8.37313 94.729411,-14.41885 8.01738,-2.72147 20.9881,-8.98805 30.32168,-14.64941 9.84906,-5.97403 25.18756,-20.65391 44.7148,-42.7948 6.5485,-7.425 13.92764,-15.75 16.39808,-18.5 15.62892,-17.39751 35.38309,-33.53272 49.55195,-40.47402 13.46324,-6.59563 22.21463,-8.41875 40.5,-8.43713 13.67805,-0.0137 15.04299,0.1671 24.07877,3.19039 24.18241,8.0912 61.7148,31.98465 112.92123,71.88665 3.025,2.3572 10.45,8.12366 16.5,12.81437 10.81669,8.38645 21.60126,16.86204 48.65028,38.23426 26.62451,21.0368 44.45283,34.92451 58.8096,45.81086 C 582.38493,490.28796 586,493.24617 586,494.65227 c 0,1.08981 -10.30582,1.37819 -56.80494,1.58954 L 472.39013,496.5 529.14758,538 c 36.60406,26.76421 56.77432,42.11846 56.80494,43.24174 0.0445,1.63274 -3.49321,1.75791 -56.5258,2 l -56.57327,0.25826 33.65592,25 c 18.51075,13.75 43.85623,32.5625 56.32327,41.80555 13.92794,10.32616 22.79056,17.55524 22.98691,18.75 C 586.13544,670.97772 582.8431,671 298.53817,671 35.844098,671 10.884066,670.86146 10.323343,669.40024 z"
     id="path3074" />
  <path
     style="fill:#16a202;fill-opacity:1"
     d="M 566.21947,450.01399 C 553.35507,446.7496 543.58615,443.23107 533.5,438.22919 521.02633,432.0433 503.72517,421.86057 494,414.98114 c -5.225,-3.69607 -10.45508,-7.21397 -11.6224,-7.81754 -3.52579,-1.82302 -44.05611,-33.95675 -49.6154,-39.33668 C 431.24299,366.35673 430,364.73649 430,364.2264 c 0,-2.76925 19.70242,-11.76483 32.24453,-14.72195 9.26619,-2.18474 29.28737,-1.96372 39.25547,0.43336 11.48147,2.76101 29.1272,9.35546 43,16.06967 12.00574,5.81058 30.00263,16.48726 34.26361,20.32693 l 2.2636,2.03978 -0.2636,32.04951 c -0.227,27.59829 -0.47194,32.07752 -1.76361,32.25114 -0.825,0.11089 -6.57624,-1.08649 -12.78053,-2.66085 z"
     id="path3070" />
  <path
     style="fill:#107601;fill-opacity:1"
     d="M 13.589304,434.25597 C 13.265187,433.93185 13,431.78711 13,429.48987 13,425.708 13.471512,424.91549 17.986755,421.10818 30.844578,410.2663 42.522552,402.52985 64.48123,390.30642 91.610836,375.20456 101.69961,372.45722 127,373.28154 c 16.01973,0.52194 44.63179,4.03884 46.34934,5.69711 1.58476,1.53007 -0.41555,4.84262 -6.64107,10.99777 -16.60996,16.42219 -47.96268,32.2115 -75.364546,37.9538 C 75.573719,431.23495 58.843229,433.0399 39,433.57724 c -10.175,0.27554 -19.922313,0.67357 -21.660696,0.88451 -1.738383,0.21094 -3.425883,0.11834 -3.75,-0.20578 z"
     id="path3066" />
  <path
     style="fill:#00923f;fill-opacity:1"
     d="m 197.29984,265.13789 c -7.61525,-2.6313 -12.42219,-6.38701 -16.24243,-12.69038 -4.62582,-7.63257 -7.57786,-19.38979 -5.23241,-20.83935 0.45374,-0.28043 4.90462,-0.81785 9.89084,-1.19426 l 9.06584,-0.68438 0.7296,3.38524 c 2.40978,11.18109 10.26295,16.37298 21.09788,13.94823 6.02424,-1.34817 9.23763,-4.34404 10.05375,-9.3732 0.94078,-5.7973 -2.73934,-8.58372 -16.57301,-12.54832 -17.94131,-5.14182 -24.41472,-9.24203 -29.43113,-18.64147 -1.69455,-3.17514 -2.13725,-5.75283 -2.14677,-12.5 -0.0105,-7.42183 0.3255,-9.0708 2.64879,-13 3.54074,-5.98821 7.29518,-9.41569 13.33921,-12.17756 4.22994,-1.93291 6.69412,-2.28769 16,-2.30362 13.51199,-0.0231 19.17884,1.70077 25.41806,7.73231 5.22189,5.04809 8.03639,10.90739 8.80184,18.32394 l 0.55991,5.42493 -5.50034,0 c -3.02518,0 -7.55552,0.2817 -10.06743,0.62599 l -4.5671,0.62599 -1.14197,-4.24094 c -0.62808,-2.33252 -2.18541,-5.28439 -3.46074,-6.55972 -5.88118,-5.88118 -21.34515,-3.46435 -22.37461,3.49687 -0.63264,4.27798 3.36231,6.79746 18.26001,11.51595 7.7398,2.4514 16.12543,5.76135 18.63472,7.35545 9.93952,6.31435 14.78336,19.86563 11.64569,32.58035 -3.97662,16.11437 -15.37385,23.64499 -35.66814,23.56741 -5.5452,-0.0212 -10.36345,-0.66273 -13.74006,-1.82946 z"
     id="path3062" />
  <path
     style="fill:#00923f;fill-opacity:1"
     d="M 102.25,265.18045 100,264.8609 100,216.43045 100,168 l 33,0 33,0 0,9.5 0,9.5 -23.03893,0 -23.03894,0 0.28894,8.75 0.28893,8.75 21.25,0.26989 21.25,0.26989 0,9.48011 0,9.48011 -21.5,0 -21.5,0 0,10.9819 0,10.9819 23.75,0.2681 23.75,0.2681 0.28753,9.25 c 0.21777,7.00598 -0.0248,9.26248 -1,9.30143 -6.5326,0.26093 -62.81644,0.37345 -64.53753,0.12902 z"
     id="path3058" />
  <path
     style="fill:#00923f;fill-opacity:1"
     d="m 267.25,265.20956 -8.25,-0.29044 0,-48.49455 0,-48.49454 10.25,0.28499 10.25,0.28498 0.5,18.43695 0.5,18.43696 15.45557,-18.68696 L 311.41115,168 l 24.07062,0 24.07063,0 8.9738,16.97889 c 4.93559,9.33839 9.21247,16.98839 9.50419,17 0.29171,0.0116 1.64399,-2.11639 3.00507,-4.72889 1.36108,-2.6125 5.37304,-10.2625 8.91546,-17 l 6.44078,-12.25 11.42078,0 c 11.03903,0 11.40278,0.0688 10.88213,2.05983 -0.29627,1.1329 -7.32375,13.89917 -15.61664,28.36947 L 388,224.73894 l 0,20.13053 c 0,18.47464 -0.14395,20.13714 -1.75,20.21092 -8.6603,0.39782 -16.05233,0.26433 -17.5,-0.31604 -1.58555,-0.63565 -1.75,-2.595 -1.75,-20.85087 l 0,-20.14929 -15.12742,-26.42134 c -8.32008,-14.53174 -15.23944,-26.29119 -15.37636,-26.1321 -0.13691,0.15909 -7.03968,8.10953 -15.33948,17.66765 l -15.09055,17.37841 2.67586,4.62159 c 1.47173,2.54188 8.88183,15.16996 16.46691,28.06239 C 332.79403,251.83323 339,262.91888 339,263.57557 c 0,2.27896 -22.93406,3.01336 -24.94539,0.7988 -0.81077,-0.89269 -3.55966,-5.97303 -15.59519,-28.82215 l -6.8201,-12.94778 -5.79407,6.39811 -5.79408,6.39811 -0.27558,14.43637 c -0.32149,16.84056 0.501,15.83113 -12.52559,15.37253 z"
     id="path3054" />
  <g
     id="g3094"
     style="fill:#00923f;fill-opacity:1">
    <path
       style="fill:#00923f;fill-opacity:1"
       d="M 425 168 L 425 216.4375 L 425 264.875 L 427.25 265.1875 C 428.4875 265.36324 438.53353 265.41712 449.5625 265.3125 C 467.5113 265.14225 470.22193 264.88103 475.5 262.90625 C 486.54498 258.7738 493.93617 249.46259 497.59375 235.03125 C 500.08772 225.19104 499.17324 200.75528 496 192.5 C 492.87468 184.36939 490.04269 180.08508 484.65625 175.34375 C 477.22934 168.80633 473.1565 168 447.375 168 L 425 168 z M 445 186.78125 L 455.25 187.15625 C 467.79582 187.62066 471.23069 189.23231 474.96875 196.5 C 477.37197 201.17242 477.5 202.30163 477.5 216.96875 C 477.5 231.146 477.28715 232.89398 475.1875 237.15625 C 473.92299 239.72319 471.67299 242.66224 470.1875 243.65625 C 468.09253 245.0581 464.97618 245.54632 456.25 245.84375 L 445 246.21875 L 445 216.5 L 445 186.78125 z "
       id="path3048" />
  </g>
  <path
     style="fill:#00923f;fill-opacity:1"
     d="m 536.25,265.18664 -3.25,-0.31336 0,-20.32803 0,-20.32804 -15.5,-27.08941 C 508.975,182.22863 502,169.56547 502,168.98746 c 0,-0.69088 4.02113,-0.95441 11.73718,-0.7692 l 11.73718,0.28174 8.95473,16.75 c 4.9251,9.2125 9.20587,16.74973 9.51282,16.7494 0.30695,-3.4e-4 4.53001,-7.65034 9.38458,-17 L 562.15297,168 l 11.54015,0 c 10.50236,0 11.49803,0.15737 11.07181,1.75 -0.25758,0.9625 -7.28506,13.67302 -15.61663,28.2456 L 554,224.4912 l 0,20.2544 c 0,18.56021 -0.14638,20.26824 -1.75,20.41984 -3.37486,0.31904 -12.78169,0.3315 -16,0.0212 z"
     id="path3040" />
  <g
     id="g3088"
     style="fill:#00923f;fill-opacity:1">
    <path
       style="fill:#00923f;fill-opacity:1"
       d="M 13.78125 168.5 L 13.90625 212 C 13.967605 235.925 14.0033 257.6375 14 260.25 L 14 265 L 40.34375 265 C 68.731058 265 70.601927 264.7245 77.75 259.65625 C 90.070517 250.92053 91.611606 226.8773 80.46875 217.09375 C 78.666499 215.51135 76.584547 214.03443 75.84375 213.78125 C 74.901267 213.45912 75.456316 212.29748 77.71875 209.96875 C 82.471355 205.07687 84.314429 199.45485 83.84375 191.125 C 83.500516 185.05061 82.954437 183.47933 79.71875 178.78125 C 77.581096 175.67747 74.201129 172.3413 71.75 170.9375 C 67.526674 168.51873 67.291691 168.5 40.65625 168.5 L 13.78125 168.5 z M 34 187 L 46.375 187 C 60.801547 187 62.754507 187.87075 63.65625 194.59375 C 64.10688 197.95345 63.772039 199.13681 61.6875 201.5625 C 59.184844 204.47474 59.103516 204.51428 46.59375 204.84375 L 34 205.15625 L 34 196.09375 L 34 187 z M 34 224 L 43.75 224.03125 C 56.794663 224.08952 61.892663 225.18323 64.71875 228.46875 C 67.919966 232.19038 67.864714 238.88095 64.59375 242.6875 C 62.193485 245.48077 62.120059 245.48837 48.09375 245.8125 L 34 246.15625 L 34 235.0625 L 34 224 z "
       id="path3036" />
  </g>
  <path
     style="fill:#00923f;fill-opacity:1"
     d="m 250,142.57325 c -16.79662,-4.65792 -28.47309,-16.74874 -32.44354,-33.59481 -1.92257,-8.15723 -1.97521,-23.815933 -0.1037,-30.847477 3.63796,-13.668344 12.55934,-24.91401 23.98647,-30.235669 11.6838,-5.441186 28.67338,-6.142476 42.09199,-1.737458 8.53752,2.80267 15.49675,9.019518 19.51019,17.428941 4.69033,9.827689 4.31928,10.490157 -7.04141,12.571712 -5.225,0.957347 -9.9721,1.763329 -10.54911,1.791071 -0.57701,0.02774 -1.60749,-1.493729 -2.28996,-3.381047 -2.73501,-7.563554 -11.92985,-12.27344 -21.95544,-11.246275 -15.58247,1.596489 -22.85164,12.382014 -22.03575,32.695247 0.33756,8.404245 0.79947,10.532335 3.3608,15.483795 3.7693,7.28665 8.99556,11.16003 17.08873,12.66511 5.34324,0.99368 6.8834,0.87573 13.05912,-1.00009 C 282.50439,120.18175 285,118.0067 285,112.42742 L 285,108 l -11,0 -11,0 0,-9.5 0,-9.5 22,0 22,0 0,20.45196 0,20.45196 -4.53147,3.11773 c -5.49313,3.77937 -16.34056,8.35625 -23.38563,9.86715 -6.76316,1.45044 -23.36422,1.27032 -29.0829,-0.31555 z"
     id="path3024" />
  <g
     id="g3084"
     style="fill:#00923f;fill-opacity:1">
    <path
       style="fill:#00923f;fill-opacity:1"
       d="M 406.34375 43.53125 C 400.27142 43.592876 394.32279 44.208177 390.09375 45.375 C 374.37086 49.713042 361.33224 63.333672 358.09375 78.8125 C 356.71758 85.389924 356.70631 102.99228 358.0625 108.875 C 361.76268 124.92526 374.63242 137.97084 391.125 142.40625 C 399.08272 144.54635 417.01197 144.41459 425.15625 142.15625 C 447.1097 136.06875 459 119.1478 459 94 C 459 69.505615 448.12412 53.176812 427 45.9375 C 422.16713 44.281259 414.15103 43.452017 406.34375 43.53125 z M 408.65625 63.125 C 409.41332 63.144232 410.19118 63.179492 410.96875 63.25 C 424.17674 64.447658 432.13169 72.654558 433.875 86.78125 C 435.999 103.99278 430.56707 117.2265 419.28125 122.21875 C 414.30198 124.42132 405.99591 125.30549 401.5 124.125 C 393.31193 121.97507 385.96626 115.30847 383.3125 107.625 C 380.60846 99.795966 380.90984 85.102698 383.9375 78.21875 C 388.30657 68.284848 397.30018 62.836527 408.65625 63.125 z "
       id="path3020" />
  </g>
  <g
     id="g3080"
     style="fill:#00923f;fill-opacity:1">
    <path
       style="fill:#00923f;fill-opacity:1"
       d="M 45 44.84375 L 45 93.90625 L 45 143 L 56 143 L 67 143 L 67 123 L 67 103 L 69.75 103.03125 C 74.96748 103.07651 80.321573 104.86164 82.90625 107.4375 C 84.332137 108.85852 90.45 117.32014 96.5 126.25 L 107.5 142.5 L 119.78125 142.78125 C 134.46329 143.11742 134.88879 142.7529 129.4375 134.3125 C 115.69109 113.02849 110.58695 105.79452 107.5 103.25 L 104 100.375 L 109.5 98.09375 C 115.94237 95.423539 122.05974 89.037686 123.8125 83.1875 C 125.327 78.132483 125.33336 67.826172 123.8125 62.75 C 122.10351 57.045885 114.99603 49.559812 109.25 47.40625 C 105.20399 45.889843 100.15366 45.585044 74.75 45.25 L 45 44.84375 z M 67 64 L 80.03125 64 C 98.350361 64 102 65.810807 102 74.96875 C 102 80.326463 98.781547 83.496885 92.375 84.375 C 89.822821 84.724815 83.073236 85 77.375 85 L 67 85 L 67 74.5 L 67 64 z "
       id="path3012" />
  </g>
  <path
     style="fill:#00923f;fill-opacity:1"
     d="M 140.45815,141.75 C 140.19466,141.0625 140.09628,119.125 140.23954,93 L 140.5,45.5 l 36.5,0 36.5,0 0,9 0,9 -25.25,0.267171 -25.25,0.267171 0,8.982829 0,8.982829 23.5,0 23.5,0 0,9.5 0,9.5 -23.5,0 -23.5,0 0,11.53326 0,11.53326 22.75,-0.0677 c 12.5125,-0.0372 24.2125,-0.0522 26,-0.0333 L 215,124 l 0,9.5 0,9.5 -37.03138,0 c -28.70294,0 -37.13914,-0.28113 -37.51047,-1.25 z"
     id="path3004" />
  <path
     style="fill:#00923f;fill-opacity:1"
     d="M 319.47002,141.78094 C 319.2,141.07642 319.09628,119.125 319.23954,93 L 319.5,45.5 l 12.5,0 12.5,0 0,48.5 0,48.5 -12.26951,0.28094 c -9.25998,0.21202 -12.38994,-0.0333 -12.76047,-1 z"
     id="path3000" />
  <path
     style="fill:#00923f;fill-opacity:1"
     d="m 471,94.001151 0,-49.068814 10.73803,0.283831 L 492.47607,45.5 510.23803,74.464371 528,103.42874 528,74.214371 528,45 l 10.5,0 10.5,0 0,49 0,49 -10.8163,0 -10.81631,0 L 509.69956,114.3303 492.03172,85.660604 491.76586,114.0803 491.5,142.5 l -10.25,0.28498 -10.25,0.28499 0,-49.068819 z"
     id="path2996" />
  <path
     style="fill:#00923f;fill-opacity:1"
     d="M 1,8.5 1,1 293.5,1 586,1 586,8.5 586,16 293.5,16 1,16 1,8.5 z"
     id="path2992" />
</svg>
